<svg id="Layer_1" data-name="Layer 1" xmlns="http://www.w3.org/2000/svg" xmlns:xlink="http://www.w3.org/1999/xlink" viewBox="0 0 110 124.76"><defs><clipPath id="clip-path" transform="translate(0 0)"><rect width="110" height="124.76" fill="none"/></clipPath><clipPath id="clip-path-2" transform="translate(0 0)"><path d="M37.72,24c-15.34,12.07-9.11,31.88-9.11,31.88,3.84,19.32,24,34.3,24,34.3a4.22,4.22,0,0,0,1.81.43,4.84,4.84,0,0,0,2-.43c16.78-10.63,24-32.85,24-32.85,4.79-18.36-4.32-28.5-4.32-28.5-7.41-8-15-10.47-21.39-10.47a30,30,0,0,0-17,5.64" fill="#fff"/></clipPath><clipPath id="clip-path-3" transform="translate(0 0)"><path d="M53.4,33.73v.64C45.31,35.71,42.6,45.1,42.6,45.1H41v2.53H71.58V45.1H69.94c-1-8.21-9.53-10.44-10.78-10.73v-.64a2.88,2.88,0,0,0-5.76,0" fill="#fff"/></clipPath></defs><g clip-path="url(#clip-path)"><rect width="110" height="124.76" fill="#042e60"/><path d="M37.72,24c-15.34,12.07-9.11,31.88-9.11,31.88,3.84,19.32,24,34.3,24,34.3a4.22,4.22,0,0,0,1.81.43,4.84,4.84,0,0,0,2-.43c16.78-10.63,24-32.85,24-32.85,4.79-18.36-4.32-28.5-4.32-28.5-7.41-8-15-10.47-21.39-10.47a30,30,0,0,0-17,5.64" transform="translate(0 0)" fill="#fff"/><g clip-path="url(#clip-path-2)"><rect x="22.38" y="18.36" width="62.8" height="72.26" fill="#fff"/></g><path d="M75.42,47.51c0-12.9-6.89-21.8-19.93-21.8-13.2,0-20.83,9.9-20.83,22.8,0,13.39,8.71,20.88,21.41,20.88,9,0,17.61-4.16,19.27-13.48H73.07a19.34,19.34,0,0,0-11.46,4,9.49,9.49,0,0,1-5.78,1.62c-5.82,0-15-4.08-15-10.73H75.42Z" transform="translate(0 0)" fill="#042e60"/><path d="M25.69,95.46a.28.28,0,0,1,.07-.21.29.29,0,0,1,.21-.08h6.27a.31.31,0,0,1,.22.08.32.32,0,0,1,.07.22V97a.31.31,0,0,1-.07.2.26.26,0,0,1-.22.1h-4.1v1.57H31.3a.39.39,0,0,1,.2,0,.24.24,0,0,1,.08.19v1.37a.28.28,0,0,1-.07.17.24.24,0,0,1-.2.08H28.14v1.62h4.25c.19,0,.28.1.28.29v1.59a.16.16,0,0,1-.05.12c0,.11-.1.17-.26.17H26a.3.3,0,0,1-.2-.06.25.25,0,0,1-.08-.21Z" transform="translate(0 0)" fill="#fff"/><path d="M36.92,95.42a.12.12,0,0,1,0-.09.6.6,0,0,1,.08-.08l.11-.06.11,0h1.62a.24.24,0,0,1,.18.07l.11.11.16.36,3.32,8.57a.16.16,0,0,1,0,.2c0,.06-.12.08-.24.08H40.58a.49.49,0,0,1-.23,0,.41.41,0,0,1-.12-.18c-.08-.22-.17-.43-.25-.64l-.24-.65H36.39c-.08.22-.17.43-.25.65l-.24.64a.32.32,0,0,1-.32.23H33.71a.32.32,0,0,1-.2-.06.16.16,0,0,1,0-.19Zm1.15,2.7-.25.7-.24.75-.24.75c-.08.25-.17.48-.25.69H39Z" transform="translate(0 0)" fill="#fff"/><path d="M42.16,95.45a.3.3,0,0,1,.08-.21.32.32,0,0,1,.22-.07h6.8a.31.31,0,0,1,.21.07.3.3,0,0,1,.1.21V97a.34.34,0,0,1-.08.21.28.28,0,0,1-.23.11H47.08v6.92a.32.32,0,0,1-.08.21.29.29,0,0,1-.22.09H44.93a.32.32,0,0,1-.2-.08.27.27,0,0,1-.1-.22V97.34H42.46a.33.33,0,0,1-.22-.08.36.36,0,0,1-.08-.24Z" transform="translate(0 0)" fill="#fff"/><path d="M51,95.46a.28.28,0,0,1,.07-.21.26.26,0,0,1,.21-.08h4a2.76,2.76,0,0,1,.82.12,2.88,2.88,0,0,1,.71.33,2.8,2.8,0,0,1,.58.51,3.39,3.39,0,0,1,.44.63,3.13,3.13,0,0,1,.27.72,2.84,2.84,0,0,1,.1.76A3.13,3.13,0,0,1,58,99.36,3,3,0,0,1,56.52,101a2.73,2.73,0,0,1-1.18.27H53.42v3c0,.18-.09.27-.29.27H51.26a.33.33,0,0,1-.21-.06.28.28,0,0,1-.07-.21Zm4.76,2.77a1.19,1.19,0,0,0-.26-.72.92.92,0,0,0-.31-.24.88.88,0,0,0-.4-.1H53.42v2.12h1.35a.83.83,0,0,0,.41-.1,1,1,0,0,0,.3-.23.88.88,0,0,0,.19-.34,1,1,0,0,0,.07-.39" transform="translate(0 0)" fill="#fff"/><path d="M59.37,95.44a.27.27,0,0,1,.08-.19.26.26,0,0,1,.21-.09h1.87a.29.29,0,0,1,.19.08.3.3,0,0,1,.1.2v6.88H65.3a.27.27,0,0,1,.19.08.26.26,0,0,1,.09.21v1.66a.32.32,0,0,1-.08.2.24.24,0,0,1-.2.09H59.65a.24.24,0,0,1-.28-.28Z" transform="translate(0 0)" fill="#fff"/><path d="M67.05,95.46a.28.28,0,0,1,.07-.21.29.29,0,0,1,.21-.08H73.6a.31.31,0,0,1,.22.08.32.32,0,0,1,.07.22V97a.31.31,0,0,1-.07.2.26.26,0,0,1-.23.1H69.5v1.57h3.16a.39.39,0,0,1,.2,0,.24.24,0,0,1,.08.19v1.37a.28.28,0,0,1-.07.17.25.25,0,0,1-.21.08H69.5v1.62h4.25c.19,0,.28.1.28.29v1.59a.21.21,0,0,1,0,.12c0,.11-.1.17-.26.17H67.33a.33.33,0,0,1-.21-.06.28.28,0,0,1-.07-.21Z" transform="translate(0 0)" fill="#fff"/><path d="M75.57,95.45a.3.3,0,0,1,.08-.2.26.26,0,0,1,.2-.08h1.87a.3.3,0,0,1,.2.08.22.22,0,0,1,.1.2v3.44l1.36-1.74,1.34-1.75a.58.58,0,0,1,.18-.17.4.4,0,0,1,.22-.07h2.4c.11,0,.16,0,.16.1a.33.33,0,0,1-.07.15l-3,3.93,3.29,5a.32.32,0,0,1,.07.17c0,.06,0,.09-.14.09H81.46a.42.42,0,0,1-.21-.06.46.46,0,0,1-.17-.17c-.23-.31-.43-.6-.61-.87s-.37-.56-.54-.84l-.52-.83c-.18-.29-.37-.58-.58-.9l-.81.93v2.46c0,.19-.1.28-.3.28H75.86c-.19,0-.29-.09-.29-.28Z" transform="translate(0 0)" fill="#fff"/></g><path d="M53.4,33.73v.64C45.31,35.71,42.6,45.1,42.6,45.1H41v2.53H71.58V45.1H69.94c-1-8.21-9.53-10.44-10.78-10.73v-.64a2.88,2.88,0,0,0-5.76,0" transform="translate(0 0)" fill="#fff"/><g clip-path="url(#clip-path-3)"><rect x="40.96" y="30.96" width="30.62" height="16.67" fill="#fff"/></g></svg>